<?xml version="1.0" encoding="UTF-8" standalone="no"?>
<!-- Created with Inkscape (http://www.inkscape.org/) -->

<svg
   xmlns:dc="http://purl.org/dc/elements/1.1/"
   xmlns:cc="http://creativecommons.org/ns#"
   xmlns:rdf="http://www.w3.org/1999/02/22-rdf-syntax-ns#"
   xmlns:svg="http://www.w3.org/2000/svg"
   xmlns="http://www.w3.org/2000/svg"
   xmlns:sodipodi="http://sodipodi.sourceforge.net/DTD/sodipodi-0.dtd"
   xmlns:inkscape="http://www.inkscape.org/namespaces/inkscape"
   width="200mm"
   height="100mm"
   viewBox="0 0 200 100"
   version="1.1"
   id="svg8"
   inkscape:version="0.92.4 (5da689c313, 2019-01-14)"
   sodipodi:docname="logo2.svg">
  <defs
     id="defs2" />
  <sodipodi:namedview
     id="base"
     pagecolor="#ffffff"
     bordercolor="#666666"
     borderopacity="1.0"
     inkscape:pageopacity="0.0"
     inkscape:pageshadow="2"
     inkscape:zoom="0.5"
     inkscape:cx="755.90551"
     inkscape:cy="951.81102"
     inkscape:document-units="mm"
     inkscape:current-layer="layer1"
     showgrid="false"
     width="400mm"
     showguides="false"
     inkscape:window-width="2400"
     inkscape:window-height="1271"
     inkscape:window-x="2391"
     inkscape:window-y="-9"
     inkscape:window-maximized="1">
    <inkscape:grid
       type="xygrid"
       id="grid3721" />
  </sodipodi:namedview>
  <metadata
     id="metadata5">
    <rdf:RDF>
      <cc:Work
         rdf:about="">
        <dc:format>image/svg+xml</dc:format>
        <dc:type
           rdf:resource="http://purl.org/dc/dcmitype/StillImage" />
        <dc:title></dc:title>
      </cc:Work>
    </rdf:RDF>
  </metadata>
  <g
     inkscape:label="Layer 1"
     inkscape:groupmode="layer"
     id="layer1"
     transform="translate(0,-197)">
    <g
       aria-label="getfiT"
       transform="matrix(0.26458333,0,0,0.26458333,-412.75,-9.2874997)"
       style="font-style:normal;font-variant:normal;font-weight:normal;font-stretch:normal;font-size:40px;line-height:1.25;font-family:'Javanese Text';-inkscape-font-specification:'Javanese Text';letter-spacing:-0.02px;word-spacing:0px;fill:#000000;fill-opacity:1;stroke:none"
       id="flowRoot3713">
      <path
         d="m 1767.625,1011.9346 q 0,26.625 -12.0938,39.0937 -12.0937,12.4688 -37.2187,12.4688 -8.3438,0 -16.3125,-1.2188 -7.875,-1.125 -15.5625,-3.2812 v -18 h 0.9375 q 4.3125,1.6875 13.6875,4.125 9.375,2.5312 18.75,2.5312 9,0 14.9062,-2.1562 5.9063,-2.1563 9.1875,-6 3.2813,-3.6563 4.6875,-8.8125 1.4063,-5.1563 1.4063,-11.5313 v -9.5625 q -7.9688,6.375 -15.2813,9.5625 -7.2187,3.0938 -18.4687,3.0938 -18.75,0 -29.8125,-13.5 -10.9688,-13.59377 -10.9688,-38.25002 0,-13.5 3.75,-23.25 3.8438,-9.84375 10.4063,-16.96875 6.0937,-6.65625 14.8125,-10.3125 8.7187,-3.75 17.3437,-3.75 9.0938,0 15.1875,1.875 6.1875,1.78125 13.0313,5.53125 l 1.125,-4.5 h 16.5 z M 1750,995.05958 v -57.09375 q -7.0313,-3.1875 -13.125,-4.5 -6,-1.40625 -12,-1.40625 -14.5313,0 -22.875,9.75 -8.3438,9.75 -8.3438,28.3125 0,17.625 6.1875,26.71875 6.1875,9.09377 20.5313,9.09377 7.6875,0 15.375,-2.9063 7.7812,-3 14.25,-7.96872 z"
         style="letter-spacing:0px;word-spacing:-0.01px;fill:#53676c"
         id="path4705"
         inkscape:connector-curvature="0" />
      <path
         d="M 1877.1562,977.12208 H 1800 q 0,9.65625 2.9062,16.875 2.9063,7.12502 7.9688,11.71872 4.875,4.5 11.5312,6.75 6.75,2.25 14.8125,2.25 10.6875,0 21.4688,-4.2187 10.875,-4.3125 15.4687,-8.4375 h 0.9375 v 19.2187 q -8.9062,3.75 -18.1875,6.2813 -9.2812,2.5312 -19.5,2.5312 -26.0625,0 -40.6875,-14.0625 -14.625,-14.1562 -14.625,-40.12497 0,-25.6875 13.9688,-40.78125 14.0625,-15.09375 36.9375,-15.09375 21.1875,0 32.625,12.375 11.5312,12.375 11.5312,35.15625 z m -17.1562,-13.5 q -0.094,-13.875 -7.0313,-21.46875 -6.8437,-7.59375 -20.9062,-7.59375 -14.1563,0 -22.5938,8.34375 -8.3437,8.34375 -9.4687,20.71875 z"
         style="letter-spacing:0px;word-spacing:-0.01px;fill:#53676c"
         id="path4707"
         inkscape:connector-curvature="0" />
      <path
         d="m 1948.5762,1020.7084 q -4.9688,1.3125 -10.875,2.1563 -5.8125,0.8437 -10.4063,0.8437 -16.0312,0 -24.375,-8.625 -8.3437,-8.625 -8.3437,-27.65621 v -55.6875 h -11.9063 v -14.8125 h 11.9063 v -30.09375 h 17.625 v 30.09375 h 36.375 v 14.8125 h -36.375 v 47.71875 q 0,8.25 0.375,12.9375 0.375,4.59375 2.625,8.62496 2.0625,3.75 5.625,5.5313 3.6562,1.6875 11.0625,1.6875 4.3125,0 9,-1.2188 4.6875,-1.3125 6.75,-2.1562 h 0.9375 z"
         style="fill:#53676c"
         id="path4709"
         inkscape:connector-curvature="0" />
      <path
         d="m 2026.2749,892.83344 h -0.9375 q -2.9062,-0.84375 -7.5937,-1.6875 -4.6875,-0.9375 -8.25,-0.9375 -11.3438,0 -16.5,5.0625 -5.0625,4.96875 -5.0625,18.09375 v 3.5625 h 31.7812 v 14.8125 h -31.2187 v 89.90621 h -17.625 v -89.90621 h -11.9063 v -14.8125 h 11.9063 v -3.46875 q 0,-18.65625 9.2812,-28.59375 9.2813,-10.03125 26.8125,-10.03125 5.9063,0 10.5938,0.5625 4.7812,0.5625 8.7187,1.3125 z"
         style="letter-spacing:-0.02px"
         id="path4711"
         inkscape:connector-curvature="0" />
      <path
         d="m 2056.3487,899.39594 h -19.875 v -18.28125 h 19.875 z m -1.125,122.24996 h -17.625 V 916.92719 h 17.625 z"
         style="letter-spacing:-0.02px"
         id="path4713"
         inkscape:connector-curvature="0" />
      <path
         d="m 2191.2349,898.55219 h -49.875 v 123.09371 h -18.5625 V 898.55219 h -49.875 v -16.5 h 118.3125 z"
         style="font-style:normal;font-variant:normal;font-weight:normal;font-stretch:normal;font-size:192px;font-family:Verdana;-inkscape-font-specification:Verdana;letter-spacing:-0.02px"
         id="path4715"
         inkscape:connector-curvature="0" />
    </g>
    <path
       style="fill:#93a7ac;stroke-width:0.25988281"
       d="m 137.58337,214.92042 h 29.204 v 6.938 h -29.204 z"
       id="rect3740"
       inkscape:connector-curvature="0" />
    <path
       style="fill:#93a7ac;stroke-width:0.28609526"
       d="m 137.58337,266.338 h 29.10413 v 8.437 h -29.10413 z"
       id="rect3740-1"
       inkscape:connector-curvature="0" />
    <path
       style="fill:#53676c;stroke-width:0.24585374"
       d="m 134.9375,260.34534 h 34.39583 v 9.138 H 134.9375 Z"
       id="rect4672"
       inkscape:connector-curvature="0" />
    <path
       style="fill:#53676c;stroke-width:0.22913608"
       d="m 134.9375,219.2125 h 34.39583 v 7.93751 H 134.9375 Z"
       id="rect4672-0"
       inkscape:connector-curvature="0" />
    <path
       style="fill:#000000;stroke-width:0.28909612"
       d="m 134.9375,221.85834 h 34.39582 v 6.80357 H 134.9375 Z"
       id="rect3766"
       inkscape:connector-curvature="0" />
  </g>
</svg>
